# xmcd
#
# Track frame offsets:
#	184
#	7263
#	21833
#	39227
#	51002
#	62854
#	68838
#	82356
#	97788
#	113073
#	127105
#	142991
#	153350
#
# Disc length: 2316 seconds
#
# Revision: 1
# Processed by: cddbd v1.5.2PL0 Copyright (c) Steve Scherf et al.
# Submitted via: audiograbber 1.83.01
#
DISCID=ad090a0d
DTITLE=John Morgan - Motionography
DYEAR=1900
DGENRE=
TTITLE0=First Flight
TTITLE1=The Return
TTITLE2=Dancing Daughter
TTITLE3=Benjo
TTITLE4=One Step Closer
TTITLE5=Moonrise
TTITLE6=O Come O Come Emmanuel
TTITLE7=Dance of the Stars
TTITLE8=Season and Change
TTITLE9=The Dance
TTITLE10=There And Back Again
TTITLE11=The Swimmer
TTITLE12=Soaring
EXTD=
EXTT0=
EXTT1=
EXTT2=
EXTT3=
EXTT4=
EXTT5=
EXTT6=
EXTT7=
EXTT8=
EXTT9=
EXTT10=
EXTT11=
EXTT12=
PLAYORDER=
